<svg xmlns="http://www.w3.org/2000/svg" xmlns:xlink="http://www.w3.org/1999/xlink" xmlns:lucid="lucid" width="556" height="158"><g transform="translate(-943 -909)" lucid:page-tab-id="0_0"><path d="M1080 963.5c0-3.3 2.7-6 6-6h408c3.3 0 6 2.7 6 6v48.5c0 3.3-2.7 6-6 6h-408c-3.3 0-6-2.7-6-6z" fill="none"/><use xlink:href="#a" transform="matrix(1,0,0,1,1080,957.5) translate(13.511067708333599 60.351562499999915)"/><use xlink:href="#b" transform="matrix(1,0,0,1,1080,957.5) translate(245.7701822916666 60.351562499999915)"/><path d="M993.25 1033.74h33.37v8.16h-33.37zm8.34 21.76h13.9l10.12-8.16h-32z" stroke="#000" stroke-opacity="0" stroke-width="3" fill="#ff3b2e"/><path d="M993.75 1028.03c-.6 0-1.2-.43-1.2-1.08-.5-14.58-8.73-23.97-16.78-33.04-7.94-9.06-15.5-17.6-15.5-30.77 0-27.32 18.1-43.08 49.67-43.08 31.58 0 49.66 15.76 49.66 43.08 0 13.18-7.55 21.7-15.5 30.78-8.04 9.08-16.28 18.47-16.78 33.05 0 .65-.6 1.08-1.2 1.08z" stroke="#000" stroke-opacity="0" stroke-width="3" fill="#fff"/><path d="M1007.16 922.7c0-1.5-1.37-2.8-2.93-2.7-28.67 1.84-44.23 17.76-44.23 43.2 0 26.76 31.36 35 32.3 63.8.05.76.66 1.3 1.42 1.3h10.65c1.56 0 2.8-1.2 2.8-2.7z" stroke="#000" stroke-opacity="0" stroke-width="3" fill="#ff758d"/><path d="M1012.84 922.7c0-1.5 1.37-2.8 2.93-2.7 28.67 1.84 44.23 17.76 44.23 43.2 0 26.76-31.36 35-32.3 63.8-.05.76-.66 1.3-1.42 1.3h-10.65c-1.56 0-2.8-1.2-2.8-2.7z" stroke="#000" stroke-opacity="0" stroke-width="3" fill="#df5a7a"/><path d="M1026.87 962.38l-2.5-4.8-14.43 7.04-14.42-7.04-2.52 4.8 15.18 7.45h3.52zm-.6 43.8l-2.42-4.8-13.9 6.78-13.93-6.8-2.43 4.8 14.58 7.2h3.52zm-30.67-63.83l-1.76-5.13-12.07 3.9-9.47-9.28c-1.34 1.32-2.6 2.65-3.77 4.05l9.3 9.1-4.02 11.75 5.3 1.74 4.1-12.1zm54.5-7.95c-1.27-1.4-2.44-2.56-3.95-3.8l-10.8 10.5-12.08-3.88-1.76 5.13 12.4 4.06 4.12 12.1 5.28-1.75-4.02-11.75zm1.75 50.58l-12.82-4.8-1.1-12.1-5.53.5 1.18 12.76-9.73 8.52 3.7 4.06 9.72-8.53 10.98 4.13c1.34-1.57 2.43-2.9 3.6-4.55zm-55.83 4.88l-9.72-8.52 1.17-12.75-5.53-.5-1.1 12.08-12.82 4.8c1.18 1.57 2.35 3.06 3.6 4.55l11-4.14 9.7 8.52z" stroke="#000" stroke-opacity="0" stroke-width="3" fill="#fff"/><path d="M993.73 1028.04c-.48 5.7-.48 13.85-.48 13.85l.38 5.45 7.98 8.15h13.9l10.12-8.15 1-5.46v-8.16l.74-6.06-33.63.36z" stroke="#000" stroke-opacity="0" stroke-width="3" fill="#a60000" fill-opacity="0"/><defs><path d="M852-420c0 229-201 450-454 450-155 0-284-68-387-204L0-217c13-69 47-103 104-103 36 0 77 29 123 88 151 103 319 72 403-96 39-160-3-249-141-328l-195-54C129-809 58-921 58-1093c0-145 72-270 231-340 206-91 373-15 499 151 22 76-4 143-94 143-31 0-72-29-125-88-133-85-306-18-305 165 0 83 50 143 150 180 87 0 188 36 287 126 106 96 151 214 151 336" id="c"/><path d="M442-1026c197-65 390-8 530 133 109 111 161 239 161 380 0 201-92 365-285 474C660 67 407 44 263-90v443c0 47-34 78-101 93-53 0-88-34-103-101v-825c0-270 125-461 383-546zm483 521c0-173-142-337-333-337-140 0-255 70-308 222-62 179 9 317 163 403 48 27 97 33 160 33 129 0 231-65 295-200 19-40 23-82 23-121" id="d"/><path d="M921-80C818-2 717 30 584 30c-165 0-313-78-430-242-60-84-84-194-84-320v-411c8-76 44-114 109-114 65 17 97 48 97 94v401c0 160 47 263 133 320 60 40 121 66 190 66 133 0 238-67 301-206 19-43 21-90 21-135v-438c13-68 49-102 108-102 65 15 98 48 98 101v892c0 51-37 87-108 94-68-13-101-47-98-110" id="e"/><path d="M194-1311c10-79 41-119 110-109 63 9 93 43 93 89v300c51-1 107-4 152-4 51 0 85 33 101 100 0 50-29 86-88 107-51-5-109-4-165-4v509c0 80 23 128 68 143 39 3 75 8 119 7 50-1 84 36 92 106-14 96-76 97-177 97-129 0-228-69-288-210-14-34-17-76-17-121v-531c-38-1-72 2-106 4-59-21-88-56-88-106 0-66 33-97 66-97v-7c40 5 81 9 128 7v-280" id="f"/><path d="M187-1053c70 20 101 48 97 109 80-73 188-109 324-109 149 0 286 59 397 186 88 101 126 214 126 329v475c0 51-37 86-108 93-65-12-98-46-98-101v-418c0-173-71-297-221-341-185-54-308 18-394 179-20 37-26 102-26 192v392c0 54-35 97-105 97C124 30 78-3 78-72v-867c8-76 44-114 109-114" id="g"/><path d="M211-1316c74 22 99 48 99 116 0 53-35 94-107 94-51 0-85-35-101-105 14-70 50-105 109-105zm0 256c66 17 99 48 99 94v898c0 55-35 98-106 98-55 0-101-33-101-102v-874c8-76 44-114 108-114" id="h"/><path d="M410-518l-125 80v370c0 55-35 98-106 98-51 0-85-31-102-94v-1302c18-73 47-108 112-99s96 44 96 91v690c326-216 521-342 586-379 79-6 129 24 129 107 0 44-49 84-136 138-152 95-241 164-276 189l406 514c19 80-31 141-103 141-40 0-86-51-157-140" id="i"/><g id="a"><use transform="matrix(0.03255208333333329,0,0,0.03255208333333329,0,0)" xlink:href="#c"/><use transform="matrix(0.03255208333333329,0,0,0.03255208333333329,29.036458333333293,0)" xlink:href="#d"/><use transform="matrix(0.03255208333333329,0,0,0.03255208333333329,67.18749999999991,0)" xlink:href="#e"/><use transform="matrix(0.03255208333333329,0,0,0.03255208333333329,105.85937499999986,0)" xlink:href="#f"/><use transform="matrix(0.03255208333333329,0,0,0.03255208333333329,128.35286458333314,0)" xlink:href="#g"/><use transform="matrix(0.03255208333333329,0,0,0.03255208333333329,167.3177083333331,0)" xlink:href="#h"/><use transform="matrix(0.03255208333333329,0,0,0.03255208333333329,181.34765624999974,0)" xlink:href="#i"/></g><path d="M536-897c235-354 359-536 372-545 72-47 169-22 169 77 0 31-50 104-135 230L641-685v604C630-1 600 30 531 30c-48 0-81-29-98-86v-626c-76-121-324-489-427-645l-6-35c19-73 47-101 111-101 46 0 81 29 105 88" id="j"/><path d="M748-1465c252 0 479 106 632 350 234 374 122 786-223 1023C1027-3 891 30 740 30 483 30 269-87 111-328 33-447 0-580 0-721c0-239 101-444 314-602 133-99 281-142 434-142zm271 283c-363-224-810 56-812 472 0 173 73 323 230 437 98 72 200 96 322 96 169 0 315-73 429-226 70-94 100-201 100-315 0-195-88-353-269-464" id="k"/><path d="M0-1352c11-81 42-121 112-111 64 9 95 43 95 90v1196h587c58 0 92 37 103 111-19 64-54 96-103 96H102C47 30 0-3 0-73v-1279" id="l"/><g id="b"><use transform="matrix(0.03255208333333329,0,0,0.03255208333333329,0,0)" xlink:href="#j"/><use transform="matrix(0.03255208333333329,0,0,0.03255208333333329,36.16536458333328,0)" xlink:href="#k"/><use transform="matrix(0.03255208333333329,0,0,0.03255208333333329,86.1653645833332,0)" xlink:href="#l"/><use transform="matrix(0.03255208333333329,0,0,0.03255208333333329,111.71874999999983,0)" xlink:href="#k"/></g></defs></g></svg>