<svg xmlns="http://www.w3.org/2000/svg" xmlns:xlink="http://www.w3.org/1999/xlink" xmlns:lucid="lucid" width="575" height="151"><g transform="translate(-949 -912)" lucid:page-tab-id="0_0"><path d="M1060 926c0-3.3 2.7-6 6-6h408c3.3 0 6 2.7 6 6v130.5c0 3.3-2.7 6-6 6h-408c-3.3 0-6-2.7-6-6z" fill="none"/><use xlink:href="#a" transform="matrix(1,0,0,1,1060,920) translate(23.40690104166694 60.351562499999915)"/><use xlink:href="#b" transform="matrix(1,0,0,1,1060,920) translate(201.66210937500003 60.351562499999915)"/><use xlink:href="#c" transform="matrix(1,0,0,1,1060,920) translate(71.71419270833354 134.83072916666646)"/><path d="M993.25 1033.74h33.37v8.16h-33.37zm8.34 21.76h13.9l10.12-8.16h-32z" stroke="#000" stroke-opacity="0" stroke-width="3" fill="#ff3b2e"/><path d="M993.75 1028.03c-.6 0-1.2-.43-1.2-1.08-.5-14.58-8.73-23.97-16.78-33.04-7.94-9.06-15.5-17.6-15.5-30.77 0-27.32 18.1-43.08 49.67-43.08 31.58 0 49.66 15.76 49.66 43.08 0 13.18-7.55 21.7-15.5 30.78-8.04 9.08-16.28 18.47-16.78 33.05 0 .65-.6 1.08-1.2 1.08z" stroke="#000" stroke-opacity="0" stroke-width="3" fill="#fff"/><path d="M1007.16 922.7c0-1.5-1.37-2.8-2.93-2.7-28.67 1.84-44.23 17.76-44.23 43.2 0 26.76 31.36 35 32.3 63.8.05.76.66 1.3 1.42 1.3h10.65c1.56 0 2.8-1.2 2.8-2.7z" stroke="#000" stroke-opacity="0" stroke-width="3" fill="#ff758d"/><path d="M1012.84 922.7c0-1.5 1.37-2.8 2.93-2.7 28.67 1.84 44.23 17.76 44.23 43.2 0 26.76-31.36 35-32.3 63.8-.05.76-.66 1.3-1.42 1.3h-10.65c-1.56 0-2.8-1.2-2.8-2.7z" stroke="#000" stroke-opacity="0" stroke-width="3" fill="#df5a7a"/><path d="M1026.87 962.38l-2.5-4.8-14.43 7.04-14.42-7.04-2.52 4.8 15.18 7.45h3.52zm-.6 43.8l-2.42-4.8-13.9 6.78-13.93-6.8-2.43 4.8 14.58 7.2h3.52zm-30.67-63.83l-1.76-5.13-12.07 3.9-9.47-9.28c-1.34 1.32-2.6 2.65-3.77 4.05l9.3 9.1-4.02 11.75 5.3 1.74 4.1-12.1zm54.5-7.95c-1.27-1.4-2.44-2.56-3.95-3.8l-10.8 10.5-12.08-3.88-1.76 5.13 12.4 4.06 4.12 12.1 5.28-1.75-4.02-11.75zm1.75 50.58l-12.82-4.8-1.1-12.1-5.53.5 1.18 12.76-9.73 8.52 3.7 4.06 9.72-8.53 10.98 4.13c1.34-1.57 2.43-2.9 3.6-4.55zm-55.83 4.88l-9.72-8.52 1.17-12.75-5.53-.5-1.1 12.08-12.82 4.8c1.18 1.57 2.35 3.06 3.6 4.55l11-4.14 9.7 8.52z" stroke="#000" stroke-opacity="0" stroke-width="3" fill="#fff"/><path d="M993.73 1028.04c-.48 5.7-.48 13.85-.48 13.85l.38 5.45 7.98 8.15h13.9l10.12-8.15 1-5.46v-8.16l.74-6.06-33.63.36z" stroke="#000" stroke-opacity="0" stroke-width="3" fill="#a60000" fill-opacity="0"/><defs><path fill="#fff" d="M536-897c235-354 359-536 372-545 72-47 169-22 169 77 0 31-50 104-135 230L641-685v604C630-1 600 30 531 30c-48 0-81-29-98-86v-626c-76-121-324-489-427-645l-6-35c19-73 47-101 111-101 46 0 81 29 105 88" id="d"/><path fill="#fff" d="M748-1465c252 0 479 106 632 350 234 374 122 786-223 1023C1027-3 891 30 740 30 483 30 269-87 111-328 33-447 0-580 0-721c0-239 101-444 314-602 133-99 281-142 434-142zm271 283c-363-224-810 56-812 472 0 173 73 323 230 437 98 72 200 96 322 96 169 0 315-73 429-226 70-94 100-201 100-315 0-195-88-353-269-464" id="e"/><path fill="#fff" d="M0-1352c11-81 42-121 112-111 64 9 95 43 95 90v1196h587c58 0 92 37 103 111-19 64-54 96-103 96H102C47 30 0-3 0-73v-1279" id="f"/><g id="a"><use transform="matrix(0.03255208333333329,0,0,0.03255208333333329,0,0)" xlink:href="#d"/><use transform="matrix(0.03255208333333329,0,0,0.03255208333333329,36.16536458333328,0)" xlink:href="#e"/><use transform="matrix(0.03255208333333329,0,0,0.03255208333333329,86.1653645833332,0)" xlink:href="#f"/><use transform="matrix(0.03255208333333329,0,0,0.03255208333333329,111.71874999999983,0)" xlink:href="#e"/></g><path fill="#fff" d="M44-1367c0-52 39-91 112-95 63 14 95 46 95 95v420c82-79 196-118 341-118 141 0 272 50 383 160 113 111 164 244 164 387 0 205-94 373-291 484-94 53-173 64-275 64-148 0-291-64-412-207C77-276 44-403 44-544v-823zm228 728c-80 201 7 376 202 445 205 73 349-17 441-205 54-215-19-350-209-442-211-53-359 12-434 202" id="g"/><path fill="#fff" d="M290 403C176 451 0 484 0 329c0-55 36-99 109-99 125 0 208-62 249-186l8-106v-894c0-56 35-89 105-100 66 13 99 46 99 100v928c0 197-89 350-280 431zm175-1711c70 14 105 49 105 105 0 59-37 94-110 105-71-23-94-50-94-116 0-45 33-77 99-94" id="h"/><path fill="#fff" d="M281-987c298-161 591-47 744 229 46 83 69 171 60 275-6 69-46 102-101 102H235c19 66 70 131 163 171 131 56 208 38 340-26 85-2 126 39 126 109 0 79-98 142-297 157C349 47 192-51 71-243 19-326 0-419 0-513c0-199 87-369 281-474zm-64 400h655c0-25-28-74-83-149-92-80-150-106-261-106-109 0-201 53-270 162-26 42-38 74-41 93" id="i"/><path fill="#fff" d="M234-957c228-160 497-124 693 61 45 72-11 162-88 162-25 0-66-31-136-75-54-34-106-38-171-38-133 0-245 65-302 210-78 198 3 357 187 437 144 63 254 21 374-79 78-25 153 1 153 95 0 65-85 141-262 198-73 23-102 16-158 16-147 0-293-60-408-206C-88-436-27-774 234-957" id="j"/><path fill="#fff" d="M194-1311c10-79 41-119 110-109 63 9 93 43 93 89v300c51-1 107-4 152-4 51 0 85 33 101 100 0 50-29 86-88 107-51-5-109-4-165-4v509c0 80 23 128 68 143 39 3 75 8 119 7 50-1 84 36 92 106-14 96-76 97-177 97-129 0-228-69-288-210-14-34-17-76-17-121v-531c-38-1-72 2-106 4-59-21-88-56-88-106 0-66 33-97 66-97v-7c40 5 81 9 128 7v-280" id="k"/><g id="b"><use transform="matrix(0.03255208333333329,0,0,0.03255208333333329,0,0)" xlink:href="#e"/><use transform="matrix(0.03255208333333329,0,0,0.03255208333333329,49.99999999999993,0)" xlink:href="#g"/><use transform="matrix(0.03255208333333329,0,0,0.03255208333333329,82.61718749999989,0)" xlink:href="#h"/><use transform="matrix(0.03255208333333329,0,0,0.03255208333333329,103.97135416666652,0)" xlink:href="#i"/><use transform="matrix(0.03255208333333329,0,0,0.03255208333333329,140.8203124999998,0)" xlink:href="#j"/><use transform="matrix(0.03255208333333329,0,0,0.03255208333333329,173.43749999999974,0)" xlink:href="#k"/></g><path fill="#fff" d="M72-1478c65 19 160 8 241 11l42-4c225 0 424 94 585 292 110 134 159 293 159 466 0 239-102 445-315 604C653-12 509 30 360 30H99C33 18 0-16 0-72v-1295c10-67 34-100 72-100v-11zm136 215v1085h133c228 0 411-104 507-331 112-263 25-474-177-647-95-81-261-113-463-107" id="l"/><path fill="#fff" d="M211-1316c74 22 99 48 99 116 0 53-35 94-107 94-51 0-85-35-101-105 14-70 50-105 109-105zm0 256c66 17 99 48 99 94v898c0 55-35 98-106 98-55 0-101-33-101-102v-874c8-76 44-114 108-114" id="m"/><path fill="#fff" d="M232-949c224-158 497-128 685 59 110 110 161 240 161 381 0 202-92 366-286 476-93 52-171 63-272 63-145 0-291-59-405-204C-87-431-26-767 232-949zm637 447c0-173-142-337-334-337-141 0-258 69-310 222-62 180 11 319 165 405 49 27 97 33 160 33 129 0 231-65 296-201 19-40 23-82 23-122" id="n"/><path fill="#fff" d="M187-1053c70 20 101 48 97 109 80-73 188-109 324-109 149 0 286 59 397 186 88 101 126 214 126 329v475c0 51-37 86-108 93-65-12-98-46-98-101v-418c0-173-71-297-221-341-185-54-308 18-394 179-20 37-26 102-26 192v392c0 54-35 97-105 97C124 30 78-3 78-72v-867c8-76 44-114 109-114" id="o"/><g id="c"><use transform="matrix(0.03255208333333329,0,0,0.03255208333333329,0,0)" xlink:href="#l"/><use transform="matrix(0.03255208333333329,0,0,0.03255208333333329,37.10937499999995,0)" xlink:href="#i"/><use transform="matrix(0.03255208333333329,0,0,0.03255208333333329,73.95833333333323,0)" xlink:href="#k"/><use transform="matrix(0.03255208333333329,0,0,0.03255208333333329,96.45182291666653,0)" xlink:href="#i"/><use transform="matrix(0.03255208333333329,0,0,0.03255208333333329,133.3007812499998,0)" xlink:href="#j"/><use transform="matrix(0.03255208333333329,0,0,0.03255208333333329,165.91796874999974,0)" xlink:href="#k"/><use transform="matrix(0.03255208333333329,0,0,0.03255208333333329,188.41145833333303,0)" xlink:href="#m"/><use transform="matrix(0.03255208333333329,0,0,0.03255208333333329,202.4414062499997,0)" xlink:href="#n"/><use transform="matrix(0.03255208333333329,0,0,0.03255208333333329,238.60677083333297,0)" xlink:href="#o"/></g></defs></g></svg>